<svg id="icons" enable-background="new 0 0 64 64" height="512" viewBox="0 0 64 64" width="512" xmlns="http://www.w3.org/2000/svg"><path d="m4.006 34.005v4h-1c-1.111 0-2-.899-2-2 0-1.109.889-2 2-2z" fill="#ed5565"/><path d="m10.006 49.005h8c0 2.21-1.791 4-4 4-2.201 0-4-1.79-4-4z" fill="#e6e9ed"/><path d="m18.006 49.005h4c0 4.42-3.58 8-8 8-4.41 0-8-3.58-8-8h4c0 2.21 1.799 4 4 4 2.209 0 4-1.79 4-4z" fill="#545c66"/><path d="m50.006 49.005c0 2.21 1.789 4 4 4 2.209 0 4-1.79 4-4v-.01h4v.01c0 4.42-3.58 8-8 8-4.422 0-8-3.58-8-8v-.01h4z" fill="#545c66"/><path d="m54.005 7.995c.55 0 1 .45 1 1v6.01c0 .55-.45 1-1 1h-1c-.55 0-1-.45-1-1v-6.01c0-.55.45-1 1-1z" fill="#e6e9ed"/><path d="m18.006 11.005h4v4h-4z" fill="#e6e9ed"/><path d="m31.006 25.005c.55 0 1 .45 1 1v1.99c0 .55-.45 1-1 1h-22c-.55 0-1-.45-1-1v-1.99c0-.55.45-1 1-1z" fill="#656d78"/><path d="m6.006 49.005c-.55 0-1-.45-1-1v-5.002c0-.55.225-1 .5-1s.95 0 1.5 0h2 2 6 2 2 1.5s.5.45.5 1v5.002c0 .55-.45 1-1 1z" fill="#656d78"/><path d="m37.006 10.005c1.1 0 2 .891 2 2 0 1.101-.9 2-2 2-1.111 0-2-.899-2-2 0-1.109.889-2 2-2z" fill="#656d78"/><path d="m50.006 48.995h-4l-2.75.01c5.42-.12 9.77-4.55 9.77-10 5.51.01 9.969 4.471 9.969 9.99h-.988-4z" fill="#7bb542"/><path d="m46.006 14.005c1.1 0 2-.899 2-2 0-1.109-.9-2-2-2h-5.58c.779-1.77 2.539-3 4.59-3v-.01h6.989l1.001 1v8.01l-1.001 1h-1.979-5.01c-2.051 0-3.82-1.229-4.59-3z" fill="#a0d468"/><path d="m40.426 10.005h5.58c1.1 0 2 .891 2 2 0 1.101-.9 2-2 2h-5.58-3.42c1.1 0 2-.899 2-2 0-1.109-.9-2-2-2z" fill="#545c66"/><path d="m53.025 39.005c0 5.45-4.35 9.88-9.77 10-.08 0-.15 0-.23 0h-15.02c-2.762 0-5-2.24-5-5h9 11.02c2.76 0 5-2.24 5-5h-.02l-2.99-22h5.01z" fill="#8cc152"/><path d="m54.006 53.005c-2.211 0-4-1.79-4-4v-.01h8v.01c0 2.21-1.791 4-4 4z" fill="#e6e9ed"/><path d="m30.006 11.005v13.99h-20v-13.99h8v4h4v-4z" fill="#ffce54"/><g fill="#a0d468"><path d="m32.006 29.995v14.01h-9-18l-1-1.002v-4.998-4-1c0-2.21 1.789-4 4-4v-.01h22.999z"/><circle cx="5.006" cy="43.003" r="1"/><circle cx="31.006" cy="29.995" r="1"/><path d="m52.005 17.004c-.553 0-1-.447-1-1v-8.008c0-.553.447-1 1-1s1 .447 1 1v8.008c0 .553-.447 1-1 1z"/></g></svg>